<mxfile host="app.diagrams.net" modified="2023-10-24T17:30:25.354Z" agent="Mozilla/5.0 (Windows NT 10.0; Win64; x64) AppleWebKit/537.36 (KHTML, like Gecko) Chrome/118.0.0.0 Safari/537.36" etag="Ol0_MAd90RIU-Vmlick0" version="22.0.6" type="device">
  <diagram name="Page-1" id="13e1069c-82ec-6db2-03f1-153e76fe0fe0">
    <mxGraphModel dx="4571" dy="1800" grid="1" gridSize="10" guides="1" tooltips="1" connect="1" arrows="1" fold="1" page="1" pageScale="1" pageWidth="1100" pageHeight="850" background="none" math="0" shadow="0">
      <root>
        <mxCell id="0" />
        <mxCell id="1" parent="0" />
        <mxCell id="XtnyZE7XWYpXY9JELvSt-9" value="endpoints/&lt;br&gt;emission_calculation" style="shape=umlLifeline;perimeter=lifelinePerimeter;whiteSpace=wrap;html=1;container=1;collapsible=0;recursiveResize=0;outlineConnect=0;rounded=1;shadow=0;comic=0;labelBackgroundColor=none;strokeWidth=1;fontFamily=Verdana;fontSize=12;align=center;size=60;movable=1;resizable=1;rotatable=1;deletable=1;editable=1;locked=0;connectable=1;" vertex="1" parent="1">
          <mxGeometry x="-820" y="60" width="160" height="680" as="geometry" />
        </mxCell>
        <mxCell id="XtnyZE7XWYpXY9JELvSt-10" value="" style="html=1;points=[];perimeter=orthogonalPerimeter;rounded=0;shadow=0;comic=0;labelBackgroundColor=none;strokeWidth=1;fontFamily=Verdana;fontSize=12;align=center;" vertex="1" parent="XtnyZE7XWYpXY9JELvSt-9">
          <mxGeometry x="75" y="100" width="10" height="560" as="geometry" />
        </mxCell>
        <mxCell id="XtnyZE7XWYpXY9JELvSt-44" value="alt" style="shape=umlFrame;whiteSpace=wrap;html=1;pointerEvents=0;" vertex="1" parent="XtnyZE7XWYpXY9JELvSt-9">
          <mxGeometry y="214" width="300" height="160" as="geometry" />
        </mxCell>
        <mxCell id="XtnyZE7XWYpXY9JELvSt-46" value="" style="endArrow=none;dashed=1;html=1;dashPattern=1 3;strokeWidth=2;rounded=0;exitX=-0.001;exitY=0.581;exitDx=0;exitDy=0;exitPerimeter=0;entryX=0.998;entryY=0.573;entryDx=0;entryDy=0;entryPerimeter=0;" edge="1" parent="XtnyZE7XWYpXY9JELvSt-9">
          <mxGeometry width="50" height="50" relative="1" as="geometry">
            <mxPoint x="0.30000000000004545" y="334.9599999999999" as="sourcePoint" />
            <mxPoint x="300.0000000000001" y="333.03999999999996" as="targetPoint" />
          </mxGeometry>
        </mxCell>
        <mxCell id="XtnyZE7XWYpXY9JELvSt-47" value="[else]" style="text;html=1;align=left;verticalAlign=middle;resizable=1;points=[];autosize=1;strokeColor=none;fillColor=default;spacing=0;movable=1;rotatable=1;deletable=1;editable=1;locked=0;connectable=1;" vertex="1" parent="XtnyZE7XWYpXY9JELvSt-9">
          <mxGeometry x="30" y="339" width="30" height="20" as="geometry" />
        </mxCell>
        <mxCell id="XtnyZE7XWYpXY9JELvSt-45" value="[defaultEmissionFactor]" style="text;html=1;align=left;verticalAlign=middle;resizable=0;points=[];autosize=1;strokeColor=none;fillColor=default;spacing=0;" vertex="1" parent="XtnyZE7XWYpXY9JELvSt-9">
          <mxGeometry x="70" y="224" width="140" height="20" as="geometry" />
        </mxCell>
        <mxCell id="XtnyZE7XWYpXY9JELvSt-48" value="getEmissionFactor()" style="html=1;verticalAlign=bottom;endArrow=block;curved=0;rounded=0;entryX=-0.002;entryY=0.215;entryDx=0;entryDy=0;entryPerimeter=0;" edge="1" parent="XtnyZE7XWYpXY9JELvSt-9">
          <mxGeometry width="80" relative="1" as="geometry">
            <mxPoint x="85" y="270" as="sourcePoint" />
            <mxPoint x="360.48" y="270.2750000000001" as="targetPoint" />
          </mxGeometry>
        </mxCell>
        <mxCell id="XtnyZE7XWYpXY9JELvSt-59" value="validate(emissionFactor)" style="html=1;verticalAlign=bottom;endArrow=block;curved=0;rounded=0;entryX=-0.098;entryY=0.197;entryDx=0;entryDy=0;entryPerimeter=0;" edge="1" parent="XtnyZE7XWYpXY9JELvSt-9" target="XtnyZE7XWYpXY9JELvSt-54">
          <mxGeometry x="-0.6136" y="-1" width="80" relative="1" as="geometry">
            <mxPoint x="85" y="120" as="sourcePoint" />
            <mxPoint x="165" y="120" as="targetPoint" />
            <mxPoint as="offset" />
          </mxGeometry>
        </mxCell>
        <mxCell id="XtnyZE7XWYpXY9JELvSt-80" value="emissionObject" style="html=1;verticalAlign=bottom;endArrow=open;dashed=1;endSize=8;curved=0;rounded=0;" edge="1" parent="XtnyZE7XWYpXY9JELvSt-9" target="XtnyZE7XWYpXY9JELvSt-79">
          <mxGeometry x="0.0011" relative="1" as="geometry">
            <mxPoint x="74" y="660" as="sourcePoint" />
            <mxPoint x="-6" y="660" as="targetPoint" />
            <mxPoint as="offset" />
          </mxGeometry>
        </mxCell>
        <mxCell id="XtnyZE7XWYpXY9JELvSt-39" value="emissionCalculation(request, response)" style="html=1;verticalAlign=bottom;startArrow=circle;startFill=1;endArrow=block;startSize=6;endSize=8;curved=0;rounded=0;entryX=-0.011;entryY=0;entryDx=0;entryDy=0;entryPerimeter=0;endFill=1;" edge="1" parent="1" target="XtnyZE7XWYpXY9JELvSt-10">
          <mxGeometry x="0.0017" width="80" relative="1" as="geometry">
            <mxPoint x="-1050" y="160" as="sourcePoint" />
            <mxPoint x="-820" y="180" as="targetPoint" />
            <mxPoint as="offset" />
          </mxGeometry>
        </mxCell>
        <mxCell id="XtnyZE7XWYpXY9JELvSt-50" value="logic/&lt;br&gt;emission_calculation_service" style="shape=umlLifeline;perimeter=lifelinePerimeter;whiteSpace=wrap;html=1;container=1;collapsible=0;recursiveResize=0;outlineConnect=0;rounded=1;shadow=0;comic=0;labelBackgroundColor=none;strokeWidth=1;fontFamily=Verdana;fontSize=12;align=center;size=60;" vertex="1" parent="1">
          <mxGeometry x="-288" y="60" width="189" height="680" as="geometry" />
        </mxCell>
        <mxCell id="XtnyZE7XWYpXY9JELvSt-51" value="" style="html=1;points=[];perimeter=orthogonalPerimeter;rounded=0;shadow=0;comic=0;labelBackgroundColor=none;strokeWidth=1;fontFamily=Verdana;fontSize=12;align=center;" vertex="1" parent="XtnyZE7XWYpXY9JELvSt-50">
          <mxGeometry x="89.5" y="587" width="10" height="53" as="geometry" />
        </mxCell>
        <mxCell id="XtnyZE7XWYpXY9JELvSt-55" value="utils/&lt;br&gt;units_converter" style="shape=umlLifeline;perimeter=lifelinePerimeter;whiteSpace=wrap;html=1;container=1;collapsible=0;recursiveResize=0;outlineConnect=0;rounded=1;shadow=0;comic=0;labelBackgroundColor=none;strokeWidth=1;fontFamily=Verdana;fontSize=12;align=center;size=60;" vertex="1" parent="1">
          <mxGeometry x="679" y="60" width="189" height="680" as="geometry" />
        </mxCell>
        <mxCell id="XtnyZE7XWYpXY9JELvSt-68" value="" style="html=1;points=[];perimeter=orthogonalPerimeter;rounded=0;shadow=0;comic=0;labelBackgroundColor=none;strokeWidth=1;fontFamily=Verdana;fontSize=12;align=center;" vertex="1" parent="XtnyZE7XWYpXY9JELvSt-55">
          <mxGeometry x="89.5" y="454" width="10" height="50" as="geometry" />
        </mxCell>
        <mxCell id="XtnyZE7XWYpXY9JELvSt-53" value="models/&lt;br&gt;emission_factor" style="shape=umlLifeline;perimeter=lifelinePerimeter;whiteSpace=wrap;html=1;container=1;collapsible=0;recursiveResize=0;outlineConnect=0;rounded=1;shadow=0;comic=0;labelBackgroundColor=none;strokeWidth=1;fontFamily=Verdana;fontSize=12;align=center;size=60;" vertex="1" parent="1">
          <mxGeometry x="-39" y="60" width="189" height="680" as="geometry" />
        </mxCell>
        <mxCell id="XtnyZE7XWYpXY9JELvSt-54" value="" style="html=1;points=[];perimeter=orthogonalPerimeter;rounded=0;shadow=0;comic=0;labelBackgroundColor=none;strokeWidth=1;fontFamily=Verdana;fontSize=12;align=center;" vertex="1" parent="XtnyZE7XWYpXY9JELvSt-53">
          <mxGeometry x="89.5" y="100" width="10" height="100" as="geometry" />
        </mxCell>
        <mxCell id="XtnyZE7XWYpXY9JELvSt-1" value="logic/&lt;br&gt;emission_factor_service" style="shape=umlLifeline;perimeter=lifelinePerimeter;whiteSpace=wrap;html=1;container=1;collapsible=0;recursiveResize=0;outlineConnect=0;rounded=1;shadow=0;comic=0;labelBackgroundColor=none;strokeWidth=1;fontFamily=Verdana;fontSize=12;align=center;size=60;" vertex="1" parent="1">
          <mxGeometry x="-549" y="60" width="189" height="680" as="geometry" />
        </mxCell>
        <mxCell id="XtnyZE7XWYpXY9JELvSt-2" value="" style="html=1;points=[];perimeter=orthogonalPerimeter;rounded=0;shadow=0;comic=0;labelBackgroundColor=none;strokeWidth=1;fontFamily=Verdana;fontSize=12;align=center;" vertex="1" parent="XtnyZE7XWYpXY9JELvSt-1">
          <mxGeometry x="89.5" y="269.5" width="10" height="44.5" as="geometry" />
        </mxCell>
        <mxCell id="XtnyZE7XWYpXY9JELvSt-49" value="emissionFactor" style="html=1;verticalAlign=bottom;endArrow=open;dashed=1;endSize=8;curved=0;rounded=0;" edge="1" parent="XtnyZE7XWYpXY9JELvSt-1">
          <mxGeometry relative="1" as="geometry">
            <mxPoint x="89.5" y="313.63" as="sourcePoint" />
            <mxPoint x="-186" y="313.63" as="targetPoint" />
          </mxGeometry>
        </mxCell>
        <mxCell id="XtnyZE7XWYpXY9JELvSt-57" value="models/&lt;br&gt;calculation_parameter" style="shape=umlLifeline;perimeter=lifelinePerimeter;whiteSpace=wrap;html=1;container=1;collapsible=0;recursiveResize=0;outlineConnect=0;rounded=1;shadow=0;comic=0;labelBackgroundColor=none;strokeWidth=1;fontFamily=Verdana;fontSize=12;align=center;size=60;" vertex="1" parent="1">
          <mxGeometry x="211" y="60" width="189" height="680" as="geometry" />
        </mxCell>
        <mxCell id="XtnyZE7XWYpXY9JELvSt-58" value="" style="html=1;points=[];perimeter=orthogonalPerimeter;rounded=0;shadow=0;comic=0;labelBackgroundColor=none;strokeWidth=1;fontFamily=Verdana;fontSize=12;align=center;" vertex="1" parent="XtnyZE7XWYpXY9JELvSt-57">
          <mxGeometry x="89.5" y="100" width="10" height="100" as="geometry" />
        </mxCell>
        <mxCell id="XtnyZE7XWYpXY9JELvSt-76" value="create(emissionData)" style="html=1;verticalAlign=bottom;endArrow=block;curved=0;rounded=0;exitX=1.167;exitY=0.857;exitDx=0;exitDy=0;exitPerimeter=0;entryX=-0.238;entryY=0.001;entryDx=0;entryDy=0;entryPerimeter=0;" edge="1" parent="XtnyZE7XWYpXY9JELvSt-57" target="XtnyZE7XWYpXY9JELvSt-75">
          <mxGeometry x="-0.6477" y="1" width="80" relative="1" as="geometry">
            <mxPoint x="-399.4999999999999" y="601.09" as="sourcePoint" />
            <mxPoint x="309" y="600" as="targetPoint" />
            <mxPoint as="offset" />
          </mxGeometry>
        </mxCell>
        <mxCell id="XtnyZE7XWYpXY9JELvSt-77" value="emissionObject" style="html=1;verticalAlign=bottom;endArrow=open;dashed=1;endSize=8;curved=0;rounded=0;exitX=-0.106;exitY=1.01;exitDx=0;exitDy=0;exitPerimeter=0;" edge="1" parent="XtnyZE7XWYpXY9JELvSt-57">
          <mxGeometry x="-0.1518" y="-1" relative="1" as="geometry">
            <mxPoint x="328" y="627" as="sourcePoint" />
            <mxPoint x="-401" y="627" as="targetPoint" />
            <mxPoint as="offset" />
          </mxGeometry>
        </mxCell>
        <mxCell id="XtnyZE7XWYpXY9JELvSt-62" value="calculationParameter" style="html=1;verticalAlign=bottom;endArrow=open;dashed=1;endSize=8;curved=0;rounded=0;entryX=0.933;entryY=0.175;entryDx=0;entryDy=0;entryPerimeter=0;exitX=0.007;exitY=0.921;exitDx=0;exitDy=0;exitPerimeter=0;" edge="1" parent="1" source="XtnyZE7XWYpXY9JELvSt-58">
          <mxGeometry x="0.2268" relative="1" as="geometry">
            <mxPoint x="339.5" y="252.4999999999999" as="sourcePoint" />
            <mxPoint x="-735.6700000000001" y="252.4999999999999" as="targetPoint" />
            <mxPoint as="offset" />
          </mxGeometry>
        </mxCell>
        <mxCell id="XtnyZE7XWYpXY9JELvSt-63" value="alt" style="shape=umlFrame;whiteSpace=wrap;html=1;pointerEvents=0;" vertex="1" parent="1">
          <mxGeometry x="-820" y="460" width="350" height="160" as="geometry" />
        </mxCell>
        <mxCell id="XtnyZE7XWYpXY9JELvSt-64" value="" style="endArrow=none;dashed=1;html=1;dashPattern=1 3;strokeWidth=2;rounded=0;exitX=-0.001;exitY=0.581;exitDx=0;exitDy=0;exitPerimeter=0;entryX=0.995;entryY=0.752;entryDx=0;entryDy=0;entryPerimeter=0;" edge="1" parent="1" target="XtnyZE7XWYpXY9JELvSt-63">
          <mxGeometry width="50" height="50" relative="1" as="geometry">
            <mxPoint x="-819.6999999999999" y="580.9599999999999" as="sourcePoint" />
            <mxPoint x="-519.9999999999999" y="579.04" as="targetPoint" />
          </mxGeometry>
        </mxCell>
        <mxCell id="XtnyZE7XWYpXY9JELvSt-65" value="[else]" style="text;html=1;align=left;verticalAlign=middle;resizable=1;points=[];autosize=1;strokeColor=none;fillColor=default;spacing=0;movable=1;rotatable=1;deletable=1;editable=1;locked=0;connectable=1;" vertex="1" parent="1">
          <mxGeometry x="-790" y="585" width="30" height="20" as="geometry" />
        </mxCell>
        <mxCell id="XtnyZE7XWYpXY9JELvSt-66" value="[unitsNotOkay]" style="text;html=1;align=left;verticalAlign=middle;resizable=0;points=[];autosize=1;strokeColor=none;fillColor=default;spacing=0;" vertex="1" parent="1">
          <mxGeometry x="-750" y="470" width="100" height="20" as="geometry" />
        </mxCell>
        <mxCell id="XtnyZE7XWYpXY9JELvSt-67" value="convertToUnits(calculationParameter, desiredUnits)" style="html=1;verticalAlign=bottom;endArrow=block;curved=0;rounded=0;entryX=-0.198;entryY=0.003;entryDx=0;entryDy=0;entryPerimeter=0;exitX=0.97;exitY=0.634;exitDx=0;exitDy=0;exitPerimeter=0;" edge="1" parent="1" source="XtnyZE7XWYpXY9JELvSt-10" target="XtnyZE7XWYpXY9JELvSt-68">
          <mxGeometry x="-0.4469" y="1" width="80" relative="1" as="geometry">
            <mxPoint x="-730" y="515" as="sourcePoint" />
            <mxPoint x="528.79" y="514.5655000000002" as="targetPoint" />
            <mxPoint as="offset" />
          </mxGeometry>
        </mxCell>
        <mxCell id="XtnyZE7XWYpXY9JELvSt-69" value="convertedCalculationParameter" style="html=1;verticalAlign=bottom;endArrow=open;dashed=1;endSize=8;curved=0;rounded=0;exitX=-0.013;exitY=0.917;exitDx=0;exitDy=0;exitPerimeter=0;entryX=0.94;entryY=0.711;entryDx=0;entryDy=0;entryPerimeter=0;" edge="1" parent="1" source="XtnyZE7XWYpXY9JELvSt-68" target="XtnyZE7XWYpXY9JELvSt-10">
          <mxGeometry x="0.1149" y="-1" relative="1" as="geometry">
            <mxPoint x="527" y="560" as="sourcePoint" />
            <mxPoint x="-739" y="559.63" as="targetPoint" />
            <mxPoint as="offset" />
          </mxGeometry>
        </mxCell>
        <mxCell id="XtnyZE7XWYpXY9JELvSt-61" value="emissionFactor" style="html=1;verticalAlign=bottom;endArrow=open;dashed=1;endSize=8;curved=0;rounded=0;exitX=-0.317;exitY=0.713;exitDx=0;exitDy=0;exitPerimeter=0;entryX=0.964;entryY=0.127;entryDx=0;entryDy=0;entryPerimeter=0;" edge="1" parent="1" source="XtnyZE7XWYpXY9JELvSt-54" target="XtnyZE7XWYpXY9JELvSt-10">
          <mxGeometry x="-0.0358" y="-1" relative="1" as="geometry">
            <mxPoint x="89.5" y="640" as="sourcePoint" />
            <mxPoint x="-735.2500000000005" y="648.52" as="targetPoint" />
            <mxPoint as="offset" />
          </mxGeometry>
        </mxCell>
        <mxCell id="XtnyZE7XWYpXY9JELvSt-60" value="validate(calculationParameter)" style="html=1;verticalAlign=bottom;endArrow=block;curved=0;rounded=0;entryX=-0.342;entryY=0.428;entryDx=0;entryDy=0;entryPerimeter=0;" edge="1" parent="1" source="XtnyZE7XWYpXY9JELvSt-10" target="XtnyZE7XWYpXY9JELvSt-58">
          <mxGeometry x="-0.7102" width="80" relative="1" as="geometry">
            <mxPoint x="-730" y="203" as="sourcePoint" />
            <mxPoint x="338.1700000000001" y="203.10000000000002" as="targetPoint" />
            <mxPoint as="offset" />
          </mxGeometry>
        </mxCell>
        <mxCell id="XtnyZE7XWYpXY9JELvSt-70" value="calculateEmission(calculationParameter, emissionFactor)" style="html=1;verticalAlign=bottom;endArrow=block;curved=0;rounded=0;exitX=1.167;exitY=0.857;exitDx=0;exitDy=0;exitPerimeter=0;entryX=-0.083;entryY=0.347;entryDx=0;entryDy=0;entryPerimeter=0;" edge="1" parent="1">
          <mxGeometry x="-0.4632" width="80" relative="1" as="geometry">
            <mxPoint x="-733.3299999999999" y="646.9200000000001" as="sourcePoint" />
            <mxPoint x="-199.32999999999993" y="646.7" as="targetPoint" />
            <mxPoint as="offset" />
          </mxGeometry>
        </mxCell>
        <mxCell id="XtnyZE7XWYpXY9JELvSt-71" value="emissionObject" style="html=1;verticalAlign=bottom;endArrow=open;dashed=1;endSize=8;curved=0;rounded=0;entryX=1.13;entryY=0.965;entryDx=0;entryDy=0;entryPerimeter=0;exitX=-0.106;exitY=1.01;exitDx=0;exitDy=0;exitPerimeter=0;" edge="1" parent="1" source="XtnyZE7XWYpXY9JELvSt-51" target="XtnyZE7XWYpXY9JELvSt-10">
          <mxGeometry x="-0.2855" relative="1" as="geometry">
            <mxPoint x="-200" y="430" as="sourcePoint" />
            <mxPoint x="-280" y="430" as="targetPoint" />
            <mxPoint as="offset" />
          </mxGeometry>
        </mxCell>
        <mxCell id="XtnyZE7XWYpXY9JELvSt-72" value="models/&lt;br&gt;emission" style="shape=umlLifeline;perimeter=lifelinePerimeter;whiteSpace=wrap;html=1;container=1;collapsible=0;recursiveResize=0;outlineConnect=0;rounded=1;shadow=0;comic=0;labelBackgroundColor=none;strokeWidth=1;fontFamily=Verdana;fontSize=12;align=center;size=60;" vertex="1" parent="1">
          <mxGeometry x="450" y="60" width="189" height="680" as="geometry" />
        </mxCell>
        <mxCell id="XtnyZE7XWYpXY9JELvSt-75" value="" style="html=1;points=[];perimeter=orthogonalPerimeter;rounded=0;shadow=0;comic=0;labelBackgroundColor=none;strokeWidth=1;fontFamily=Verdana;fontSize=12;align=center;" vertex="1" parent="XtnyZE7XWYpXY9JELvSt-72">
          <mxGeometry x="89.5" y="599" width="10" height="43" as="geometry" />
        </mxCell>
        <mxCell id="XtnyZE7XWYpXY9JELvSt-79" value="" style="shape=umlLifeline;perimeter=lifelinePerimeter;whiteSpace=wrap;html=1;container=1;dropTarget=0;collapsible=0;recursiveResize=0;outlineConnect=0;portConstraint=eastwest;newEdgeStyle={&quot;curved&quot;:0,&quot;rounded&quot;:0};participant=umlActor;" vertex="1" parent="1">
          <mxGeometry x="-1052" y="71" width="20" height="669" as="geometry" />
        </mxCell>
        <mxCell id="XtnyZE7XWYpXY9JELvSt-83" value="" style="group;spacingRight=2;" vertex="1" connectable="0" parent="1">
          <mxGeometry x="-1040" y="780" width="300" height="100" as="geometry" />
        </mxCell>
        <mxCell id="XtnyZE7XWYpXY9JELvSt-86" value="" style="group" vertex="1" connectable="0" parent="XtnyZE7XWYpXY9JELvSt-83">
          <mxGeometry width="300" height="100" as="geometry" />
        </mxCell>
        <mxCell id="XtnyZE7XWYpXY9JELvSt-81" value="" style="shape=note;whiteSpace=wrap;html=1;backgroundOutline=1;darkOpacity=0.05;align=left;" vertex="1" parent="XtnyZE7XWYpXY9JELvSt-86">
          <mxGeometry width="298" height="100" as="geometry" />
        </mxCell>
        <mxCell id="XtnyZE7XWYpXY9JELvSt-82" value="Note" style="text;html=1;strokeColor=none;fillColor=none;align=left;verticalAlign=middle;whiteSpace=wrap;rounded=0;spacingLeft=4;fontStyle=1" vertex="1" parent="XtnyZE7XWYpXY9JELvSt-86">
          <mxGeometry width="60" height="30" as="geometry" />
        </mxCell>
        <mxCell id="XtnyZE7XWYpXY9JELvSt-84" value="- No errors are represented here&lt;br&gt;- Some of the objects creation while executing some of the functions is not represented" style="text;html=1;strokeColor=none;fillColor=none;align=left;verticalAlign=top;whiteSpace=wrap;rounded=0;spacingLeft=3;spacingRight=5;" vertex="1" parent="XtnyZE7XWYpXY9JELvSt-86">
          <mxGeometry y="30" width="300" height="70" as="geometry" />
        </mxCell>
      </root>
    </mxGraphModel>
  </diagram>
</mxfile>
